<?xml version="1.0" standalone="no"?>
<!DOCTYPE svg PUBLIC "-//W3C//DTD SVG 20010904//EN"
 "http://www.w3.org/TR/2001/REC-SVG-20010904/DTD/svg10.dtd">
<svg version="1.0" xmlns="http://www.w3.org/2000/svg"
 width="500.000000pt" height="500.000000pt" viewBox="0 0 500.000000 500.000000"
 preserveAspectRatio="xMidYMid meet">
<metadata>
Created by potrace 1.14, written by Peter Selinger 2001-2017
</metadata>
<g transform="translate(0.000000,500.000000) scale(0.100000,-0.100000)"
fill="#000000" stroke="none">
<path d="M0 2500 l0 -2500 2500 0 2500 0 0 2500 0 2500 -2500 0 -2500 0 0
-2500z m2700 554 c0 -2 -7 -4 -15 -4 -8 0 -15 4 -15 10 0 5 7 7 15 4 8 -4 15
-8 15 -10z m-347 -320 c-7 -3 -9 -12 -6 -20 3 -8 -1 -14 -11 -14 -9 0 -16 6
-16 14 0 14 15 24 35 24 6 0 5 -2 -2 -4z m102 -62 c-3 -3 -11 0 -18 7 -9 10
-8 11 6 5 10 -3 15 -9 12 -12z m-528 -253 c19 -16 17 -104 -3 -123 -24 -25
-90 -21 -108 6 -30 43 -17 116 24 131 20 8 70 0 87 -14z m131 -1 c3 -14 -3
-18 -27 -18 -41 0 -40 -17 2 -28 25 -6 33 -14 35 -36 5 -38 -14 -56 -58 -56
-41 0 -51 6 -43 26 3 9 14 11 34 7 22 -4 29 -2 29 11 0 9 -7 16 -15 16 -17 0
-55 35 -55 50 0 6 9 19 21 31 24 24 72 23 77 -3z m841 9 c14 -17 4 -27 -26
-27 -32 0 -29 -16 6 -28 34 -12 47 -42 31 -72 -8 -15 -21 -20 -55 -20 -38 0
-45 3 -45 20 0 16 5 19 29 14 43 -9 48 13 6 30 -29 13 -35 20 -35 46 0 22 6
33 23 40 32 13 53 12 66 -3z m-1131 -9 c17 -17 15 -48 -4 -69 -14 -16 -14 -20
1 -43 17 -25 17 -26 -4 -26 -11 0 -28 11 -37 25 -20 31 -32 32 -30 3 1 -14 -6
-24 -16 -26 -16 -3 -18 6 -18 72 l0 76 48 0 c26 0 53 -5 60 -12z m432 -3 c0
-11 -11 -15 -36 -15 -42 0 -43 -23 -1 -28 38 -5 35 -32 -3 -32 -16 0 -30 -4
-30 -10 0 -5 16 -10 35 -10 28 0 35 -4 35 -20 0 -18 -7 -20 -55 -20 l-55 0 0
75 0 75 55 0 c42 0 55 -3 55 -15z m108 -60 c3 -70 1 -75 -18 -75 -18 0 -20 6
-20 75 0 65 2 75 18 75 14 0 18 -11 20 -75z m94 32 l28 -42 0 43 c0 35 3 42
20 42 18 0 20 -7 20 -75 0 -68 -2 -75 -20 -75 -12 0 -30 16 -47 42 l-28 42 -3
-42 c-3 -34 -7 -42 -23 -42 -17 0 -19 7 -19 75 0 71 1 75 23 75 15 0 31 -13
49 -43z m209 27 c20 -24 17 -89 -5 -113 -14 -15 -31 -21 -63 -21 l-43 0 0 75
0 75 49 0 c33 0 53 -5 62 -16z m79 -39 c0 -42 4 -57 16 -62 25 -9 44 24 44 74
0 32 4 43 15 43 12 0 15 -13 15 -59 0 -69 -15 -91 -62 -91 -50 0 -68 24 -68
92 0 51 2 58 20 58 18 0 20 -7 20 -55z m360 40 c0 -8 -9 -15 -20 -15 -18 0
-20 -7 -20 -60 0 -53 -2 -60 -20 -60 -18 0 -20 7 -20 60 0 53 -2 60 -20 60
-11 0 -20 7 -20 15 0 12 13 15 60 15 47 0 60 -3 60 -15z m138 -23 c2 -18 -2
-40 -9 -48 -9 -11 -8 -19 5 -39 16 -24 16 -25 -6 -25 -12 0 -32 12 -45 28
l-22 27 -1 -27 c0 -21 -5 -28 -20 -28 -18 0 -20 7 -20 75 l0 76 58 -3 c57 -3
57 -3 60 -36z m76 13 c4 -14 10 -25 15 -25 4 0 14 11 21 25 7 14 22 25 32 25
17 0 16 -4 -7 -50 -14 -27 -25 -61 -25 -75 0 -18 -5 -25 -20 -25 -16 0 -20 7
-20 32 0 17 -11 51 -25 75 l-26 43 24 0 c18 0 27 -7 31 -25z m-1225 -227 c11
-28 6 -38 -20 -38 -13 0 -19 7 -19 23 0 42 25 51 39 15z m78 16 c-3 -3 -12 -4
-19 -1 -8 3 -5 6 6 6 11 1 17 -2 13 -5z m200 0 c-3 -3 -12 -4 -19 -1 -8 3 -5
6 6 6 11 1 17 -2 13 -5z m156 -1 c-19 -7 -16 -41 5 -46 13 -4 11 -5 -5 -6 -19
-1 -23 4 -23 29 0 22 5 30 18 29 10 0 12 -3 5 -6z m200 -17 c3 13 5 10 6 -10
1 -28 0 -28 -18 -12 -18 17 -19 17 -24 -1 -3 -10 -5 -2 -6 17 l-1 35 19 -24
c18 -23 19 -23 24 -5z m202 11 c-22 -17 -11 -41 16 -34 11 3 17 1 13 -4 -8
-14 -30 -11 -44 6 -10 12 -10 18 0 30 7 8 17 15 23 15 6 0 3 -6 -8 -13z m-691
-39 c7 -5 5 -8 -6 -8 -13 0 -18 7 -17 28 1 21 2 22 6 7 3 -11 10 -23 17 -27z
m209 19 c4 3 7 1 7 -5 0 -23 -18 -20 -29 6 -10 23 -10 25 2 10 8 -10 17 -15
20 -11z m406 -16 c-2 -6 -10 2 -17 17 -11 25 -11 25 4 10 9 -9 15 -21 13 -27z
m176 -1 c7 0 16 9 18 20 4 17 4 16 3 -2 -1 -30 -41 -32 -42 -3 -1 15 0 16 3 3
3 -10 11 -18 18 -18z m-858 -6 c-3 -3 -12 -4 -19 -1 -8 3 -5 6 6 6 11 1 17 -2
13 -5z m200 0 c-3 -3 -12 -4 -19 -1 -8 3 -5 6 6 6 11 1 17 -2 13 -5z"/>
<path d="M1844 2386 c-3 -8 -4 -27 -2 -43 4 -36 41 -44 58 -13 18 34 5 70 -26
70 -13 0 -27 -6 -30 -14z"/>
<path d="M1697 2393 c-3 -5 -2 -15 3 -22 10 -17 43 -6 38 12 -6 15 -34 22 -41
10z"/>
<path d="M2538 2360 c-3 -36 -1 -40 20 -40 26 0 37 20 28 55 -4 16 -13 25 -25
25 -15 0 -20 -9 -23 -40z"/>
<path d="M3110 2380 c0 -13 7 -20 20 -20 13 0 20 7 20 20 0 13 -7 20 -20 20
-13 0 -20 -7 -20 -20z"/>
<path d="M2010 2170 c0 -11 6 -20 14 -20 9 0 12 7 9 20 -3 11 -9 20 -14 20 -5
0 -9 -9 -9 -20z"/>
</g>
</svg>
